<svg id="Capa_1" enable-background="new 0 0 512 512" height="512" viewBox="0 0 512 512" width="512" xmlns="http://www.w3.org/2000/svg"><path d="m418.244 101.776h-324.488l-40.25 40.713v341.783c0 11.172 9.057 20.228 20.228 20.228h364.531c11.172 0 20.228-9.057 20.228-20.228v-341.783z" fill="#88b9d4"/><path d="m438.265 7.5h-364.53c-11.172 0-20.228 9.057-20.228 20.228v140.431h404.988v-140.431c-.001-11.171-9.058-20.228-20.23-20.228z" fill="#c7eefb"/><path d="m423.934 107.532v376.74c0 11.172-9.057 20.229-20.228 20.229h34.56c11.172 0 20.228-9.057 20.228-20.228v-341.784z" fill="#6ea8c8"/><path d="m438.265 7.5h-14.331v160.659h34.56v-140.43c0-11.172-9.057-20.229-20.229-20.229z" fill="#97e4f9"/><g fill="#3c5959"><path d="m162.143 267.986h-43c-5.474 0-9.911-4.437-9.911-9.911v-43c0-5.474 4.437-9.911 9.911-9.911h43c5.474 0 9.911 4.437 9.911 9.911v43c0 5.474-4.437 9.911-9.911 9.911z"/><path d="m277.5 267.986h-43c-5.474 0-9.911-4.437-9.911-9.911v-43c0-5.474 4.437-9.911 9.911-9.911h43c5.474 0 9.911 4.437 9.911 9.911v43c.001 5.474-4.437 9.911-9.911 9.911z"/><path d="m392.858 267.986h-43c-5.474 0-9.911-4.437-9.911-9.911v-43c0-5.474 4.437-9.911 9.911-9.911h43c5.474 0 9.911 4.437 9.911 9.911v43c0 5.474-4.437 9.911-9.911 9.911z"/><path d="m162.143 365.146h-43c-5.474 0-9.911-4.437-9.911-9.911v-43c0-5.474 4.437-9.911 9.911-9.911h43c5.474 0 9.911 4.438 9.911 9.911v43c0 5.474-4.437 9.911-9.911 9.911z"/><path d="m277.5 365.146h-43c-5.474 0-9.911-4.437-9.911-9.911v-43c0-5.474 4.437-9.911 9.911-9.911h43c5.474 0 9.911 4.438 9.911 9.911v43c.001 5.474-4.437 9.911-9.911 9.911z"/><path d="m162.143 462.307h-43c-5.474 0-9.911-4.438-9.911-9.911v-43c0-5.474 4.437-9.911 9.911-9.911h43c5.474 0 9.911 4.437 9.911 9.911v43c0 5.473-4.437 9.911-9.911 9.911z"/><path d="m277.5 462.307h-43c-5.474 0-9.911-4.438-9.911-9.911v-43c0-5.474 4.437-9.911 9.911-9.911h43c5.474 0 9.911 4.437 9.911 9.911v43c.001 5.473-4.437 9.911-9.911 9.911z"/></g><path d="m392.858 302.323h-43c-5.474 0-9.911 4.437-9.911 9.911v140.161c0 5.474 4.438 9.911 9.911 9.911h43c5.474 0 9.911-4.438 9.911-9.911v-140.16c0-5.474-4.437-9.912-9.911-9.912z" fill="#fb636f"/><path d="m98.256 122.391v-69.928c0-5.336 4.326-9.662 9.662-9.662h296.164c5.336 0 9.662 4.326 9.662 9.662v69.928c0 5.336-4.326 9.662-9.662 9.662h-296.164c-5.336.001-9.662-4.325-9.662-9.662z" fill="#62d8f9"/><path d="m438.265 0h-364.53c-15.29 0-27.729 12.439-27.729 27.729v456.543c0 15.29 12.439 27.729 27.728 27.729h364.531c15.289 0 27.728-12.439 27.728-27.729 0-21.575 0-443.941 0-456.543.001-15.29-12.438-27.729-27.728-27.729zm-377.259 27.729c0-7.019 5.71-12.729 12.729-12.729h364.53c7.019 0 12.729 5.71 12.729 12.729v132.931h-389.988zm377.26 469.271h-364.532c-7.018 0-12.728-5.71-12.728-12.729v-308.612h389.987v308.612c.001 7.019-5.709 12.729-12.727 12.729z"/><path d="m404.082 35.3h-237.151c-4.142 0-7.5 3.358-7.5 7.5s3.358 7.5 7.5 7.5h237.151c1.192 0 2.162.97 2.162 2.163v69.928c0 1.192-.97 2.163-2.162 2.163h-296.164c-1.192 0-2.162-.97-2.162-2.163v-69.928c0-1.192.97-2.163 2.162-2.163h23.954c4.142 0 7.5-3.358 7.5-7.5s-3.358-7.5-7.5-7.5h-23.954c-9.463 0-17.162 7.699-17.162 17.163v69.928c0 9.463 7.699 17.163 17.162 17.163h296.164c9.463 0 17.162-7.699 17.162-17.163v-69.928c0-9.463-7.699-17.163-17.162-17.163z"/><path d="m162.143 197.663h-43c-9.601 0-17.411 7.811-17.411 17.412v43c0 9.601 7.811 17.412 17.411 17.412h43c9.601 0 17.412-7.811 17.412-17.412v-43c-.001-9.601-7.812-17.412-17.412-17.412zm2.411 60.412c0 1.33-1.082 2.412-2.412 2.412h-43c-1.33 0-2.411-1.082-2.411-2.412v-43c0-1.33 1.082-2.412 2.411-2.412h43c1.33 0 2.412 1.082 2.412 2.412z"/><path d="m277.5 197.663h-43c-9.601 0-17.412 7.811-17.412 17.412v43c0 9.601 7.811 17.412 17.412 17.412h43c9.601 0 17.412-7.811 17.412-17.412v-43c0-9.601-7.811-17.412-17.412-17.412zm2.412 60.412c0 1.33-1.082 2.412-2.412 2.412h-43c-1.33 0-2.412-1.082-2.412-2.412v-43c0-1.33 1.082-2.412 2.412-2.412h43c1.33 0 2.412 1.082 2.412 2.412z"/><path d="m392.858 197.663h-43c-9.601 0-17.412 7.811-17.412 17.412v43c0 9.601 7.811 17.412 17.412 17.412h43c9.601 0 17.411-7.811 17.411-17.412v-43c0-9.601-7.811-17.412-17.411-17.412zm2.411 60.412c0 1.33-1.082 2.412-2.411 2.412h-43c-1.33 0-2.412-1.082-2.412-2.412v-43c0-1.33 1.082-2.412 2.412-2.412h43c1.33 0 2.411 1.082 2.411 2.412z"/><path d="m162.143 294.823h-43c-9.601 0-17.411 7.811-17.411 17.412v43c0 9.601 7.811 17.412 17.411 17.412h43c9.601 0 17.412-7.811 17.412-17.412v-43c-.001-9.601-7.812-17.412-17.412-17.412zm2.411 60.412c0 1.33-1.082 2.412-2.412 2.412h-43c-1.33 0-2.411-1.082-2.411-2.412v-43c0-1.33 1.082-2.412 2.411-2.412h43c1.33 0 2.412 1.082 2.412 2.412z"/><path d="m277.5 294.823h-43c-9.601 0-17.412 7.811-17.412 17.412v43c0 9.601 7.811 17.412 17.412 17.412h43c9.601 0 17.412-7.811 17.412-17.412v-43c0-9.601-7.811-17.412-17.412-17.412zm2.412 60.412c0 1.33-1.082 2.412-2.412 2.412h-43c-1.33 0-2.412-1.082-2.412-2.412v-43c0-1.33 1.082-2.412 2.412-2.412h43c1.33 0 2.412 1.082 2.412 2.412z"/><path d="m162.143 391.983h-43c-9.601 0-17.411 7.811-17.411 17.412v43c0 9.601 7.811 17.412 17.411 17.412h43c9.601 0 17.412-7.811 17.412-17.412v-43c-.001-9.601-7.812-17.412-17.412-17.412zm2.411 60.412c0 1.33-1.082 2.412-2.412 2.412h-43c-1.33 0-2.411-1.082-2.411-2.412v-43c0-1.33 1.082-2.412 2.411-2.412h43c1.33 0 2.412 1.082 2.412 2.412z"/><path d="m277.5 391.983h-43c-9.601 0-17.412 7.811-17.412 17.412v43c0 9.601 7.811 17.412 17.412 17.412h43c9.601 0 17.412-7.811 17.412-17.412v-43c0-9.601-7.811-17.412-17.412-17.412zm2.412 60.412c0 1.33-1.082 2.412-2.412 2.412h-43c-1.33 0-2.412-1.082-2.412-2.412v-43c0-1.33 1.082-2.412 2.412-2.412h43c1.33 0 2.412 1.082 2.412 2.412z"/><path d="m392.858 294.823h-43c-9.601 0-17.412 7.811-17.412 17.412v52.55c0 4.142 3.358 7.5 7.5 7.5s7.5-3.358 7.5-7.5v-52.55c0-1.33 1.082-2.412 2.412-2.412h43c1.33 0 2.411 1.082 2.411 2.412v140.16c0 1.33-1.082 2.412-2.411 2.412h-43c-1.33 0-2.412-1.082-2.412-2.412v-52.55c0-4.142-3.358-7.5-7.5-7.5s-7.5 3.358-7.5 7.5v52.55c0 9.601 7.811 17.412 17.412 17.412h43c9.601 0 17.411-7.811 17.411-17.412v-140.16c0-9.601-7.811-17.412-17.411-17.412z"/></svg>