<?xml version="1.0" encoding="utf-8"?>
<!-- Generator: Adobe Illustrator 22.1.0, SVG Export Plug-In . SVG Version: 6.00 Build 0)  -->
<svg version="1.1" id="Lag_1" xmlns="http://www.w3.org/2000/svg" xmlns:xlink="http://www.w3.org/1999/xlink" x="0px" y="0px"
	 viewBox="0 0 1366 768" style="enable-background:new 0 0 1366 768;" xml:space="preserve">
<style type="text/css">
	.st0{enable-background:new    ;}
</style>
<g id="Tegnebræt_1" style="fill:white;">
	<g class="st0">
		<path d="M109.4,263.5c-1-3.1-2.1-7-2.1-10.1c0-15.1,12.6-26.3,27.7-26.3c12.6,0,22.8,8.1,26.3,19.3l48.7,150.2l49-148.8
			c4.2-12.6,13.7-21.4,27.3-21.4h4.2c13.6,0,23.1,8.4,27.3,21.4l49,148.8l48.7-150.2c3.5-10.5,12.6-19.3,25.9-19.3
			c14.7,0,26.6,11.2,26.6,25.9c0,3.2-1,7.4-2.1,10.5L397.1,456c-4.9,13.7-15.1,22-28,22h-5.6c-13,0-22.8-8-27.7-22l-48.3-140.4
			L239.3,456c-4.9,14-14.7,22-27.7,22H206c-13,0-23.1-8.4-28-22L109.4,263.5z"/>
		<path d="M576.6,478.4c-56.4,0-98-39.6-98-97v-0.7c0-53.6,38.2-97.7,92.8-97.7c62.7,0,90.3,51.5,90.3,90.3
			c0,15.4-10.9,25.6-24.9,25.6H531.5c5.3,24.2,22.1,36.8,45.9,36.8c14.7,0,27-4.5,37.8-12.6c3.9-2.8,7.4-4.2,13-4.2
			c11.9,0,20.7,9.1,20.7,21c0,7-3.2,12.2-7,15.8C625.3,469.6,603.9,478.4,576.6,478.4z M610.9,365.7c-3.2-23.8-17.2-39.9-39.6-39.9
			c-22.1,0-36.4,15.8-40.6,39.9H610.9z"/>
		<path d="M890.9,449.7c0,14.7-11.9,26.6-26.6,26.6s-26.6-11.9-26.6-26.6v-2.5c-13,17.5-30.8,30.5-58.5,30.5
			c-43.8,0-85.4-34.3-85.4-97V380c0-62.7,41-97,85.4-97c28.4,0,45.9,13,58.5,28v-67.9c0-14.7,11.9-26.6,26.6-26.6
			s26.6,11.9,26.6,26.6V449.7z M747.1,380v0.7c0,31.1,21,51.8,45.9,51.8s45.5-20.7,45.5-51.8V380c0-31.2-20.7-51.8-45.5-51.8
			S747.1,348.5,747.1,380z"/>
		<path d="M937.8,241.8c0-15.4,13-24.9,29.8-24.9c16.8,0,29.8,9.5,29.8,24.9v0.7c0,15.4-13,25.2-29.8,25.2
			c-16.8,0-29.8-9.8-29.8-25.2V241.8z M941,311.1c0-14.7,11.9-26.6,26.6-26.6s26.6,11.9,26.6,26.6v138.6c0,14.7-11.9,26.6-26.6,26.6
			S941,464.4,941,449.7V311.1z"/>
		<path d="M1035.1,381.4v-0.7c0-53.9,43.4-97.7,101.9-97.7c58.1,0,101.2,43.1,101.2,97v0.7c0,53.9-43.4,97.7-101.9,97.7
			C1078.2,478.4,1035.1,435.3,1035.1,381.4z M1185.6,381.4v-0.7c0-27.7-20-51.8-49.4-51.8c-30.5,0-48.7,23.5-48.7,51.1v0.7
			c0,27.6,20,51.8,49.4,51.8C1167.4,432.5,1185.6,409.1,1185.6,381.4z"/>
	</g>
</g>
</svg>
